# xmcd
#
# Track frame offsets: 
#        150
#        14445
#        35230
#        57870
#
# Disc length: 1066 seconds
#
# Revision: 0
# Processed by: cddbd v1.5.2PL0 Copyright (c) Steve Scherf et al.
# Submitted via: ExactAudioCopy v1.0b1
#
DISCID=30042804
DTITLE=DJ Isaac - I Wanna Be A Gabber Baby CDM
DYEAR=1996
DGENRE=Happy Hardcore
TTITLE0=I Wanna Be A Gabber Baby
TTITLE1=Bass And Sound
TTITLE2=Get With The Bass
TTITLE3=Dirty Bitch (Stunned Guys Remix)
EXTD=
EXTT0=
EXTT1=
EXTT2=
EXTT3=
PLAYORDER=
